<?xml version="1.0" encoding="UTF-8" standalone="yes"?><svg xmlns="http://www.w3.org/2000/svg" xmlns:xlink="http://www.w3.org/1999/xlink" height="387px" style="width:745px;height:387px;" version="1.1" viewBox="0 0 745 387" width="745px"><defs><filter height="300%" id="f1" width="300%" x="-1" y="-1"><feGaussianBlur result="blurOut" stdDeviation="2.0"/><feColorMatrix in="blurOut" result="blurOut2" type="matrix" values="0 0 0 0 0 0 0 0 0 0 0 0 0 0 0 0 0 0 .4 0"/><feOffset dx="4.0" dy="4.0" in="blurOut2" result="blurOut3"/><feBlend in="SourceGraphic" in2="blurOut3" mode="normal"/></filter></defs><g><line style="stroke: #A80036; stroke-width: 1.0; stroke-dasharray: 5.0,5.0;" x1="64" x2="64" y1="38.2969" y2="349.625"/><line style="stroke: #A80036; stroke-width: 1.0; stroke-dasharray: 5.0,5.0;" x1="379" x2="379" y1="38.2969" y2="349.625"/><line style="stroke: #A80036; stroke-width: 1.0; stroke-dasharray: 5.0,5.0;" x1="694.5" x2="694.5" y1="38.2969" y2="349.625"/><rect fill="#FEFECE" filter="url(#f1)" height="30.2969" style="stroke: #A80036; stroke-width: 1.5;" width="109" x="8" y="3"/><text fill="#000000" font-family="sans-serif" font-size="14" lengthAdjust="spacingAndGlyphs" textLength="95" x="15" y="22.9951">MockIotAgent</text><rect fill="#FEFECE" filter="url(#f1)" height="30.2969" style="stroke: #A80036; stroke-width: 1.5;" width="109" x="8" y="348.625"/><text fill="#000000" font-family="sans-serif" font-size="14" lengthAdjust="spacingAndGlyphs" textLength="95" x="15" y="368.6201">MockIotAgent</text><rect fill="#FEFECE" filter="url(#f1)" height="30.2969" style="stroke: #A80036; stroke-width: 1.5;" width="31" x="362" y="3"/><text fill="#000000" font-family="sans-serif" font-size="14" lengthAdjust="spacingAndGlyphs" textLength="17" x="369" y="22.9951">LB</text><rect fill="#FEFECE" filter="url(#f1)" height="30.2969" style="stroke: #A80036; stroke-width: 1.5;" width="31" x="362" y="348.625"/><text fill="#000000" font-family="sans-serif" font-size="14" lengthAdjust="spacingAndGlyphs" textLength="17" x="369" y="368.6201">LB</text><rect fill="#FEFECE" filter="url(#f1)" height="30.2969" style="stroke: #A80036; stroke-width: 1.5;" width="88" x="648.5" y="3"/><text fill="#000000" font-family="sans-serif" font-size="14" lengthAdjust="spacingAndGlyphs" textLength="74" x="655.5" y="22.9951">MockOrion</text><rect fill="#FEFECE" filter="url(#f1)" height="30.2969" style="stroke: #A80036; stroke-width: 1.5;" width="88" x="648.5" y="348.625"/><text fill="#000000" font-family="sans-serif" font-size="14" lengthAdjust="spacingAndGlyphs" textLength="74" x="655.5" y="368.6201">MockOrion</text><polygon fill="#A80036" points="367.5,65.2969,377.5,69.2969,367.5,73.2969,371.5,69.2969" style="stroke: #A80036; stroke-width: 1.0;"/><line style="stroke: #A80036; stroke-width: 1.0;" x1="64.5" x2="373.5" y1="69.2969" y2="69.2969"/><text fill="#000000" font-family="sans-serif" font-size="13" lengthAdjust="spacingAndGlyphs" textLength="197" x="71.5" y="64.3638">/ngsi10/registerContext Room*</text><polygon fill="#A80036" points="682.5,94.4297,692.5,98.4297,682.5,102.4297,686.5,98.4297" style="stroke: #A80036; stroke-width: 1.0;"/><line style="stroke: #A80036; stroke-width: 1.0;" x1="379.5" x2="688.5" y1="98.4297" y2="98.4297"/><text fill="#000000" font-family="sans-serif" font-size="13" lengthAdjust="spacingAndGlyphs" textLength="197" x="386.5" y="93.4966">/ngsi10/registerContext Room*</text><polygon fill="#A80036" points="367.5,123.5625,377.5,127.5625,367.5,131.5625,371.5,127.5625" style="stroke: #A80036; stroke-width: 1.0;"/><line style="stroke: #A80036; stroke-width: 1.0;" x1="64.5" x2="373.5" y1="127.5625" y2="127.5625"/><text fill="#000000" font-family="sans-serif" font-size="13" lengthAdjust="spacingAndGlyphs" textLength="186" x="71.5" y="122.6294">/ngsi10/registerContext Flap*</text><polygon fill="#A80036" points="682.5,152.6953,692.5,156.6953,682.5,160.6953,686.5,156.6953" style="stroke: #A80036; stroke-width: 1.0;"/><line style="stroke: #A80036; stroke-width: 1.0;" x1="379.5" x2="688.5" y1="156.6953" y2="156.6953"/><text fill="#000000" font-family="sans-serif" font-size="13" lengthAdjust="spacingAndGlyphs" textLength="186" x="386.5" y="151.7622">/ngsi10/registerContext Flap*</text><polygon fill="#A80036" points="390.5,181.8281,380.5,185.8281,390.5,189.8281,386.5,185.8281" style="stroke: #A80036; stroke-width: 1.0;"/><line style="stroke: #A80036; stroke-width: 1.0;" x1="384.5" x2="693.5" y1="185.8281" y2="185.8281"/><text fill="#000000" font-family="sans-serif" font-size="13" lengthAdjust="spacingAndGlyphs" textLength="184" x="396.5" y="180.895">/ngsi10/queryContext Room*</text><polygon fill="#A80036" points="75.5,210.9609,65.5,214.9609,75.5,218.9609,71.5,214.9609" style="stroke: #A80036; stroke-width: 1.0;"/><line style="stroke: #A80036; stroke-width: 1.0;" x1="69.5" x2="378.5" y1="214.9609" y2="214.9609"/><text fill="#000000" font-family="sans-serif" font-size="13" lengthAdjust="spacingAndGlyphs" textLength="184" x="81.5" y="210.0278">/ngsi10/queryContext Room*</text><polygon fill="#A80036" points="390.5,240.0938,380.5,244.0938,390.5,248.0938,386.5,244.0938" style="stroke: #A80036; stroke-width: 1.0;"/><line style="stroke: #A80036; stroke-width: 1.0;" x1="384.5" x2="693.5" y1="244.0938" y2="244.0938"/><text fill="#000000" font-family="sans-serif" font-size="13" lengthAdjust="spacingAndGlyphs" textLength="182" x="396.5" y="239.1606">/ngsi10/queryContext Flap21</text><polygon fill="#A80036" points="75.5,269.2266,65.5,273.2266,75.5,277.2266,71.5,273.2266" style="stroke: #A80036; stroke-width: 1.0;"/><line style="stroke: #A80036; stroke-width: 1.0;" x1="69.5" x2="378.5" y1="273.2266" y2="273.2266"/><text fill="#000000" font-family="sans-serif" font-size="13" lengthAdjust="spacingAndGlyphs" textLength="182" x="81.5" y="268.2935">/ngsi10/queryContext Flap21</text><polygon fill="#A80036" points="390.5,298.3594,380.5,302.3594,390.5,306.3594,386.5,302.3594" style="stroke: #A80036; stroke-width: 1.0;"/><line style="stroke: #A80036; stroke-width: 1.0;" x1="384.5" x2="693.5" y1="302.3594" y2="302.3594"/><text fill="#000000" font-family="sans-serif" font-size="13" lengthAdjust="spacingAndGlyphs" textLength="291" x="396.5" y="297.4263">/ngsi10/updateContext Flap21, status=closed</text><polygon fill="#A80036" points="75.5,327.4922,65.5,331.4922,75.5,335.4922,71.5,331.4922" style="stroke: #A80036; stroke-width: 1.0;"/><line style="stroke: #A80036; stroke-width: 1.0;" x1="69.5" x2="378.5" y1="331.4922" y2="331.4922"/><text fill="#000000" font-family="sans-serif" font-size="13" lengthAdjust="spacingAndGlyphs" textLength="291" x="81.5" y="326.5591">/ngsi10/updateContext Flap21, status=closed</text></g></svg>